<?xml version="1.0" standalone="no"?>
<!DOCTYPE svg PUBLIC "-//W3C//DTD SVG 1.1//EN" "http://www.w3.org/Graphics/SVG/1.1/DTD/svg11.dtd" >
<svg xmlns="http://www.w3.org/2000/svg">
<metadata>Generated by IcoMoon</metadata>
<defs>
<font id="icomoon" horiz-adv-x="1024">
<font-face units-per-em="1024" ascent="960" descent="-64" />
<missing-glyph horiz-adv-x="1024" />
<glyph unicode="&#x20;" horiz-adv-x="512" d="" />
<glyph unicode="&#xe900;" glyph-name="share" d="M823.296 960c-92.738-0.359-167.821-75.441-168.18-168.145 0.22-15.555 2.538-30.446 6.683-44.556l-269.656-154.427c-38.752 44.626-95.578 72.68-158.956 72.68-116.070 0-210.164-94.094-210.164-210.164s94.094-210.164 210.164-210.164c63.378 0 120.204 28.054 158.736 72.421l269.58-155.146c-3.945-12.986-6.333-27.938-6.581-43.41-0.005-0.542-0.007-1.024-0.007-1.507 0-93.664 75.93-169.594 169.594-169.594s169.594 75.93 169.594 169.594c0 93.664-75.93 169.594-169.594 169.594-47.775 0-90.935-19.754-121.76-51.54l-269.256 155.361c7.077 19.165 11.172 41.299 11.172 64.39s-4.094 45.225-11.597 65.717l269.493 154.077c30.578-31.561 73.352-51.151 120.701-51.151 92.775 0 167.985 75.209 167.985 167.985 0 92.764-75.19 167.966-167.95 167.985zM823.296 875.886c0.014 0 0.032 0 0.049 0 46.455 0 84.114-37.659 84.114-84.114s-37.659-84.114-84.114-84.114c-46.455 0-84.114 37.659-84.114 84.114 0 0.017 0 0.034 0 0.051-0.001 0.172-0.002 0.378-0.002 0.585 0 46.105 37.375 83.48 83.48 83.48 0.206 0 0.413-0.001 0.619-0.002zM234.642 581.559c69.669 0 126.147-56.478 126.147-126.147s-56.478-126.147-126.147-126.147c-69.669 0-126.147 56.478-126.147 126.147-0.001 0.189-0.002 0.412-0.002 0.636 0 69.319 56.194 125.513 125.513 125.513 0.223 0 0.447-0.001 0.67-0.002zM823.345 203.118c46.455 0 84.114-37.659 84.114-84.114s-37.659-84.114-84.114-84.114c-46.455 0-84.114 37.659-84.114 84.114-0.002 0.189-0.002 0.412-0.002 0.636 0 46.105 37.375 83.48 83.48 83.48 0.207 0 0.413-0.001 0.619-0.002z" />
<glyph unicode="&#xe901;" glyph-name="add" d="M755.109 544.732h-203.618v203.618h-54.359v-203.618h-203.673v-54.359h203.673v-231.023h54.359v231.055h203.618z" />
<glyph unicode="&#xe902;" glyph-name="arrow-4" d="M1024 900.292v-184.482c0-19.592-15.883-35.475-35.475-35.475s-35.475 15.883-35.475 35.475v122.969l-222.87-222.87c-6.364-6.58-15.273-10.666-25.135-10.666s-18.771 4.085-25.126 10.656c-6.322 6.497-10.214 15.366-10.214 25.145s3.893 18.648 10.213 25.144l222.862 222.861h-122.969c-19.592 0-35.475 15.883-35.475 35.475s15.883 35.475 35.475 35.475h184.482c32.922-0.132 59.576-26.785 59.708-59.695zM344.265 615.676c-6.292-6.504-15.070-10.569-24.798-10.66-0.161-0.002-0.332-0.004-0.502-0.004-9.611 0-18.264 4.098-24.309 10.641l-222.89 222.309v-122.969c0-19.592-15.883-35.475-35.475-35.475s-35.475 15.883-35.475 35.475v184.482c0 0.052 0 0.113 0 0.175 0 32.879 26.654 59.533 59.533 59.533 0.062 0 0.123 0 0.185 0h184.472c19.592 0 35.475-15.883 35.475-35.475s-15.883-35.475-35.475-35.475h-122.969l222.87-222.87c6.214-6.306 10.052-14.968 10.052-24.527 0-9.876-4.096-18.795-10.682-25.151zM344.032 229.82l-222.87-222.87h122.969c19.592 0 35.475-15.883 35.475-35.475s-15.883-35.475-35.475-35.475h-184.482c-0.052 0-0.113 0-0.175 0-32.879 0-59.533 26.654-59.533 59.533 0 0.062 0 0.123 0 0.185v184.298c0 19.592 15.883 35.475 35.475 35.475s35.475-15.883 35.475-35.475v-122.969l222.87 222.87c6.433 6.433 15.319 10.411 25.135 10.411 19.632 0 35.547-15.915 35.547-35.547 0-9.816-3.979-18.703-10.411-25.135zM1024 180.015v-184.482c0-0.052 0-0.113 0-0.175 0-32.879-26.654-59.533-59.533-59.533-0.062 0-0.123 0-0.185 0h-184.472c-19.592 0-35.475 15.883-35.475 35.475s15.883 35.475 35.475 35.475h122.969l-222.87 222.87c-6.312 6.487-10.205 15.357-10.205 25.135s3.893 18.648 10.213 25.144c6.356 6.572 15.265 10.658 25.128 10.658s18.771-4.085 25.126-10.656l222.879-222.879v123.551c0.066 19.566 15.909 35.409 35.469 35.475 19.578-0.547 35.262-16.435 35.481-36.036z" />
<glyph unicode="&#xe903;" glyph-name="barcode" d="M0-64h426.676v426.676h-426.676zM85.324 277.352h256.027v-256.027h-256.027zM170.428 405.338h256.027v85.324h-256.027zM554.442 704.027h-85.104v-170.428h85.324zM85.324 490.662h-85.324v-85.324h85.324zM554.662 832.014h-85.324v-85.324h85.324zM554.662 960h-85.324v-85.324h85.324zM0 533.324h426.676v426.676h-426.676zM85.324 874.676h256.027v-256.027h-256.027zM597.324 960v-426.676h426.676v426.676zM938.676 618.648h-255.973v256.027h256.027zM938.676 234.635h85.324v85.324h-85.324zM938.676 21.269h-42.552v85.379h-85.434v-85.324h-85.324v-85.324h298.69v213.31h-85.379zM810.69 191.698h-85.324v-85.324h85.324zM938.676 405.063h85.324v85.599h-85.324zM639.986 106.373v-85.324h85.324v85.599zM639.986 319.739v-85.324h256.137v85.544h-85.434v85.379h-85.324v-85.324zM639.986 405.063h85.324v85.599h-85.269v-42.662h-85.379v-85.324h85.324zM554.662 149.036h85.324v85.599h-85.324v128.041h-85.324v-426.676h170.428v85.324h-85.104zM896.124 490.662h-85.434v-85.324h85.434z" />
<glyph unicode="&#xe904;" glyph-name="bookmarks" d="M263.32 950.519c-1.672 0.103-3.627 0.162-5.595 0.162-51.388 0-93.414-40.079-96.526-90.683l-0.013-862.709c-0.153-1.335-0.24-2.882-0.24-4.45 0-22.81 18.491-41.301 41.301-41.301 1.568 0 3.115 0.087 4.637 0.257-0.155-0.017-0.118-0.017-0.080-0.017 4.285 0 8.293 1.184 11.715 3.243l294.582 174.402 294.684-174.459c3.319-2.002 7.328-3.186 11.612-3.186 0.037 0 0.075 0 0.112 0 1.329-0.153 2.877-0.24 4.444-0.24 22.81 0 41.301 18.491 41.301 41.301 0 1.568-0.087 3.115-0.257 4.637l0.017 862.248c-3.125 50.878-45.152 90.957-96.54 90.957-1.968 0-3.923-0.059-5.862-0.175zM263.32 905.007h499.295c1.997 0.28 4.304 0.44 6.648 0.44 26.277 0 47.861-20.093 50.226-45.753l0.015-858.727-294.684 174.459c-3.34 2.034-7.379 3.238-11.7 3.238s-8.36-1.204-11.801-3.295l-294.584-174.402v858.757c2.454 25.788 24.004 45.8 50.227 45.8 2.241 0 4.449-0.146 6.613-0.43z" />
<glyph unicode="&#xe905;" glyph-name="check" d="M970.423 904.887c-8.903-1.199-16.579-5.692-21.895-12.191l-484.071-580.998-277.175 194.926c-5.756 4.759-13.211 7.645-21.341 7.645-18.562 0-33.609-15.047-33.609-33.609 0-12.226 6.528-22.928 16.289-28.809l302.524-212.857c5.388-3.59 12.011-5.728 19.133-5.728 10.301 0 19.557 4.473 25.931 11.583l503.983 604.778c5.075 5.854 8.168 13.547 8.168 21.962 0 18.562-15.047 33.609-33.609 33.609-1.513 0-3.003-0.1-4.463-0.294zM30.098 770.158c-16.804-2.342-29.662-16.41-30.097-33.565l-0.001-716.844c0.698-18.274 15.335-32.911 33.544-33.607l716.865-0.002c18.274 0.698 32.911 15.335 33.607 33.544l0.002 313.738c0.012 0.33 0.018 0.719 0.018 1.109 0 18.562-15.047 33.609-33.609 33.609s-33.609-15.047-33.609-33.609c0-0.39 0.007-0.778 0.020-1.165l-0.002-279.898h-649.655v649.509h548.571c0.33-0.012 0.719-0.018 1.109-0.018 18.562 0 33.609 15.047 33.609 33.609s-15.047 33.609-33.609 33.609c-0.39 0-0.778-0.007-1.165-0.020z" />
<glyph unicode="&#xe906;" glyph-name="finger" d="M501.295 512.419c-7.222-2.108-12.408-8.669-12.408-16.442 0-1.738 0.259-3.416 0.742-4.997 0.496-1.43 46.514-164.712 33.667-527.394-0.010-0.215-0.015-0.467-0.015-0.721 0-9.222 7.341-16.73 16.499-16.997l0.676-0.001c0.031 0 0.067 0 0.103 0 9.236 0 16.761 7.323 17.087 16.479 12.878 368.018-33.015 531.486-35.063 538.188-2.123 7.294-8.747 12.535-16.595 12.535-1.671 0-3.286-0.237-4.813-0.68zM933.392 676.755c-72.423 167.882-236.515 283.258-427.553 283.258-64.489 0-125.908-13.148-181.722-36.909-31.070-13.095-60.173-28.686-87.563-46.673-3.081-1.742-6.486-7.25-6.486-13.553 0-9.46 7.669-17.129 17.129-17.129 3.774 0 7.262 1.22 10.093 3.288 23.654 15.532 50.935 30.151 79.51 42.321 52.366 22.042 109.252 34.106 168.952 34.135 0.212 0 0.449 0.001 0.686 0.001 176.663 0 328.378-106.818 394.081-259.39 26.353-77.633 44.021-164.474 50.516-254.41 1.049-12.168 8.333-18.934 17.202-18.96h1.709c8.774 0.833 15.584 8.165 15.584 17.087 0 0.539-0.025 1.072-0.073 1.598-6.426 96.887-24.993 187.29-54.264 272.724zM187.764 793.088c3.157 3.11 5.113 7.432 5.113 12.21 0 9.465-7.672 17.137-17.137 17.137-4.686 0-8.933-1.881-12.026-4.929-92.375-91.227-184.442-260.404-98.333-550.010 2.297-7.13 8.873-12.197 16.633-12.197 1.724 0 3.39 0.25 4.964 0.717 7.013 2.119 12.121 8.633 12.121 16.34 0 1.764-0.268 3.466-0.765 5.067-64.387 216.129-33.449 394.491 89.431 515.665zM519.168 856.793c-4.197 0.178-9.121 0.279-14.068 0.279-49.83 0-97.259-10.282-140.28-28.841-129.244-54.937-219.83-183.009-219.83-332.239 0-34.911 4.958-68.664 14.207-100.593 4.090-12.327 8.511-30.803 11.726-49.692 5.107-56.25 7.812-118.681 7.812-181.744 0-22.286-0.338-44.494-1.008-66.618 0.078-6.256 7.774-13.953 17.269-13.953s17.191 7.697 17.191 17.191c0.596 18.96 0.936 41.256 0.936 63.631 0 64.725-2.841 128.786-8.406 192.066-3.256 14.912-8.034 34.831-14.045 54.208-6.919 23.292-11.406 53.835-11.406 85.426 0 180.304 146.166 326.47 326.47 326.47 4.234 0 8.448-0.081 12.643-0.24 121.593-4.264 260.050-112.063 301.91-235.285 36.088-106.558 36.43-288.085 31.961-451.522-0.003-0.115-0.004-0.25-0.004-0.386 0-9.341 7.384-16.958 16.634-17.332 0.043-0.001 0.054-0.001 0.065-0.001 9.414 0 17.114 7.342 17.684 16.613 4.471 166.59 4.129 351.903-33.852 463.612-46.39 137.93-196.112 253.89-333.607 258.948zM378.384 679.145c4.002 3.165 6.547 8.020 6.547 13.469 0 9.46-7.669 17.129-17.129 17.129-3.408 0-6.584-0.995-9.252-2.711-65.63-50.41-107.56-128.987-107.56-217.358 0-28.464 4.35-55.912 12.422-81.715 21.955-90.097 34.848-195.756 34.848-304.426 0-7.080-0.055-14.148-0.164-21.203 0.013-8.43 7.71-16.126 17.204-16.126s17.191 7.697 17.191 17.191c0.112 6.529 0.177 14.231 0.177 21.947 0 111.372-13.344 219.628-38.521 323.255-4.902 11.842-8.832 36.198-8.832 61.473 0 76.744 36.234 145.026 92.527 188.67zM505.918 753.742c-19.621-0.010-38.725-2.203-57.088-6.348-6.133-1.344-11.947-8.23-11.947-16.474 0-9.477 7.683-17.16 17.16-17.16 1.384 0 2.73 0.164 4.020 0.473 14.239 3.256 30.726 5.135 47.651 5.135 91.978 0 170.992-55.504 205.377-134.845 42.326-100.093 45.087-258.41 35.437-534.797-0.010-0.215-0.015-0.467-0.015-0.721 0-9.222 7.341-16.73 16.499-16.997l0.707-0.001c0.031 0 0.067 0 0.103 0 9.236 0 16.761 7.323 17.087 16.479 9.962 287.401 7.045 442.801-37.484 547.994-40.086 93.193-131.111 157.262-237.1 157.262-0.143 0-0.286 0-0.429 0zM676.274 134.811c0 0.001 0 0.002 0 0.003 0 9.46-7.573 17.151-16.987 17.342h-0.204c-0.028 0-0.061 0-0.093 0-9.41 0-17.045-7.602-17.097-17 0-12.883 0.341-31.811 0.869-52.26 0.683-29.572 1.365-63.24 0.683-84.899-0.007-0.188-0.012-0.409-0.012-0.63 0-9.24 7.329-16.767 16.491-17.087l0.712-0.001c0.038 0 0.084 0 0.129 0 9.318 0 16.899 7.441 17.124 16.705 0.869 22.549 0 56.744-0.682 86.906-0.59 19.797-0.931 38.353-0.931 50.921zM505.949 633.437c-0.015 0-0.033 0-0.051 0-19.093 0-37.272-3.914-53.778-10.983-48.942-21.719-83.080-70.734-83.080-127.722 0-17.032 3.049-33.352 8.632-48.444 12.564-38.38 23.58-244.173 23.58-448.973 0-9.494 7.697-17.191 17.191-17.191s17.191 7.697 17.191 17.191c0 184.072-9.806 412.517-25.6 460.459-4.144 10.872-6.544 23.445-6.544 36.579 0 42.787 25.47 79.625 62.076 96.179 12.373 5.27 25.997 8.178 40.3 8.178 42.521 0 79.039-25.698 94.871-62.411 32.405-76.632 41.838-214.159 44.258-316.062 0.242-9.326 7.835-16.801 17.186-16.849h0.346c9.354 0.224 16.852 7.861 16.852 17.248 0 0.1-0.001 0.199-0.003 0.299-2.42 105.178-12.412 247.328-46.762 328.441-21.312 49.802-69.896 84.061-126.482 84.061-0.065 0-0.129 0-0.194 0z" />
<glyph unicode="&#xe907;" glyph-name="flag" d="M682.957 960c-14.63-0.899-26.951-9.928-32.569-22.592-19.261-56.419-67.815-97.706-126.955-106.079-61.455-15.457-137.026-16.634-208.758-34.554-59.128-12.931-109.123-45.558-143.963-90.519l-3.34 4.554c-5.991 10.829-17.347 18.039-30.386 18.039-19.115 0-34.611-15.496-34.611-34.611 0-0.456 0.009-0.91 0.026-1.362-0.004-0.086-0.006-0.265-0.006-0.444 0-6.365 1.752-12.321 4.8-17.412l441.105-742.911c6.345-10.184 17.425-16.898 30.083-17.049 0.133-0.001 0.264-0.002 0.395-0.002 6.411 0 12.412 1.751 17.553 4.8 9.955 6.48 16.551 17.72 16.551 30.501 0 6.333-1.619 12.287-4.466 17.472l-199.585 335.786c26.059 55.401 79.003 94.322 141.55 100.096 58.437 12.8 130.219 16.742 198.059 37.427 76.19 19.935 136.489 74.621 163.8 145.669 1.89 5.079 2.692 9.065 2.753 13.23-0.349 15.045-9.779 27.775-22.998 32.965l-174.326 61.525v230.656c-0.143 19.135-15.587 34.615-34.694 34.816zM648.141 817.766v-148.019c0.383-14.913 9.819-27.528 22.999-32.583l160.604-56.71c-23.503-36.272-59.757-62.573-102.284-72.68-57.46-17.432-127.604-21.579-193.447-36.069-68.303-12.14-126.475-48.589-166.461-99.904l-135.056 226.112c-7.475 12.749-15.36 26.368-22.835 38.81 21.246 48.828 65.622 84.050 118.907 92.055 61.266 15.465 137.093 16.643 209.132 34.921 41.723 10.432 78.094 29.16 108.868 54.448z" />
<glyph unicode="&#xe908;" glyph-name="folder" d="M967.111 455.092h-37.926v151.704c0 41.892-33.96 75.852-75.852 75.852h-75.852v125.611c0 0.005 0 0.011 0 0.017 0 41.892-33.96 75.852-75.852 75.852-7.777 0-15.281-1.17-22.345-3.345l-606.278-181.902c-31.523-9.68-54.044-38.535-54.044-72.649 0-0.006 0-0.012 0-0.017v-550.38c0-41.892 33.96-75.852 75.852-75.852h758.519c41.892 0 75.852 33.96 75.852 75.852v151.704h37.926c20.946 0 37.926 16.98 37.926 37.926v151.704c0 20.946-16.98 37.926-37.926 37.926zM690.745 844.591c3.253 1.015 6.996 1.61 10.874 1.631 20.957 0 37.937-16.98 37.937-37.926v-125.649h-588.61zM891.259 75.833c0-20.946-16.98-37.926-37.926-37.926h-758.519c-20.946 0-37.926 16.98-37.926 37.926v530.963c0 20.946 16.98 37.926 37.926 37.926h758.519c20.946 0 37.926-16.98 37.926-37.926v-151.704h-151.704c-20.946 0-37.926-16.98-37.926-37.926v-151.704c0-20.946 16.98-37.926 37.926-37.926h151.704zM967.111 265.463h-227.556v151.704h227.556z" />
<glyph unicode="&#xe909;" glyph-name="badge" horiz-adv-x="2308" d="M2308.166-64v1024h-2277.463l271.489-549.91-302.358-474.090z" />
<glyph unicode="&#xe90a;" glyph-name="heart" d="M959.666 405.526l-367.972-375.63c-17.497-18.013-41.948-29.19-69.009-29.19s-51.511 11.177-68.986 29.167l-367.995 375.653c-53.018 54.53-85.71 129.064-85.71 211.233s32.692 156.703 85.779 211.304c52.439 53.934 125.785 87.442 206.958 87.442s154.518-33.507 206.961-87.445l23.083-23.575 23.018 23.507c52.492 54.039 125.843 87.571 207.026 87.571s154.534-33.532 206.959-87.501c53.178-54.558 85.936-129.105 85.936-211.303s-32.758-156.744-85.931-211.298zM912.696 781.913c-40.661 42.128-97.626 68.288-160.701 68.288s-120.041-26.16-160.638-68.222l-69.116-70.766-68.875 70.701c-40.668 42.13-97.641 68.291-160.723 68.291s-120.055-26.161-160.66-68.226c-41.256-42.659-66.642-100.763-66.642-164.796s25.386-122.137 66.642-164.796l367.285-376.633c5.83-5.986 13.968-9.7 22.973-9.7s17.143 3.713 22.966 9.692l367.489 376.705c41.193 42.594 66.579 100.697 66.579 164.73s-25.386 122.137-66.642 164.796zM847.293 602.134c1.219 5.744 1.946 12.364 2.003 19.145 0 0.082 0 0.126 0 0.17 0 54.095-43.853 97.948-97.948 97.948-6.807 0-13.451-0.694-19.866-2.016l-5.778 32.12c7.655 1.611 16.475 2.564 25.507 2.627 72.197-0.025 130.675-58.519 130.675-130.671 0-0.031 0-0.063 0-0.094-0.012-9.065-0.968-17.904-2.775-26.429l-31.819 7.245z" />
<glyph unicode="&#xe90b;" glyph-name="home" d="M1010.294 480.847l-478.208 414.641c-3.565 3.362-8.385 5.428-13.687 5.428-5.733 0-10.901-2.416-14.543-6.285l-475.421-413.824c-3.663-3.456-5.944-8.343-5.944-13.763 0-10.441 8.464-18.905 18.905-18.905 4.468 0 8.575 1.55 11.81 4.142l75.739 66.098v-504.478c0-10.419 8.446-18.865 18.865-18.865h247.138c10.402 0.022 18.826 8.46 18.826 18.865 0 0 0 0 0 0v250.486h209.566v-250.486c0.045-10.429 8.509-18.865 18.944-18.865 0 0 0 0 0 0h247.060c0.012 0 0.026 0 0.039 0 10.397 0 18.826 8.429 18.826 18.826 0 0.014 0 0.028 0 0.042v504.672l77.273-66.206c3.382-3.215 7.967-5.193 13.014-5.193 10.441 0 18.905 8.464 18.905 18.905 0 5.979-2.775 11.309-7.108 14.773zM870.558 543.862v-511.055h-209.487v250.565c0 0.023 0 0.051 0 0.079 0 10.391-8.402 18.82-18.782 18.865h-247.3c-10.453-0.022-18.922-8.491-18.944-18.942v-250.606h-209.329v510.976c-0.065 2.312-0.536 4.495-1.345 6.507l353.089 307.073 353.28-307.2c-0.745-1.893-1.178-4.086-1.182-6.379z" />
<glyph unicode="&#xe90c;" glyph-name="info" d="M1024 447.795c0 1.231 0 2.463 0 3.694-0.277 61.962-11.538 121.209-31.933 176.012l0.228-1.121q-1.693 4.566-3.437 9.029-2.206 5.541-4.515 11.081v0c-79.452 184.161-258.693 311.103-467.798 312.944l-8.033 0.002c-66.282-0.412-129.417-13.391-187.302-36.669l2.561 0.86-10.261-4.309-7.285-2.36-4.669-2.052c-178.143-81.869-299.962-258.091-301.607-462.945-0.001-1.395-0.001-2.575-0.001-3.755s0-2.616 0-3.95c0.395-66.276 13.357-129.413 36.617-187.303-0.449 1.536 0.321-0.413 1.141-2.312s1.488-3.745 2.257-5.592c79.453-184.327 258.92-311.346 468.24-312.945l7.233-0.001c57.53 0.349 112.658 10.145 164.067 27.911l2.666 1.126 5.13 1.847c196.742 73.66 334.597 259.349 336.339 477.464 0.36 1.189 0.36 2.266 0.36 3.344zM526.365 798.859c0.152 0.001 0.331 0.001 0.511 0.001 51.426 0 93.114-41.689 93.114-93.114s-41.689-93.114-93.114-93.114c-51.191 0-92.733 41.309-93.112 92.41-0.001 0.174-0.001 0.338-0.001 0.501 0 51.251 41.315 92.852 92.456 93.316zM650.671 159.474c-29.213-34.394-71.291-57.091-118.709-60.606-9.24-1.173-19.266-1.824-29.444-1.824-17.671 0-34.885 1.96-51.435 5.675-41.253 10.606-72.411 48.817-72.411 94.305 0 3.833 0.221 7.615 0.652 11.332 6.011 47.925 15.348 95.842 23.3 143.964 7.028 41.863 14.57 83.623 21.444 125.486 0.33 2.603 0.518 5.615 0.518 8.67 0 4.313-0.375 8.539-1.094 12.646-0.842 10.747-9.407 19.681-20.336 21.149-6.996 1.296-14.281 0.526-20.95 2.322-10.34 2.017-19.539 5.58-27.854 10.483-4.59 3.236-7.823 8.937-7.823 15.394 0 8.125 5.118 15.054 12.306 17.739 7.029 2.857 15.033 4.495 23.418 4.506 30.119 0.513 60.234 0 90.348 0v0c30.782 0 61.563 0 92.345 0 0.949 0.104 2.050 0.163 3.164 0.163 16.191 0 29.462-12.501 30.689-28.377 0.561-4.484 0.877-9.551 0.877-14.692 0-12.45-1.856-24.466-5.305-35.788q-19.114-102.609-37.89-206.138c-3.899-21.342-7.388-42.735-10.927-64.128-0.31-2.372-0.487-5.114-0.487-7.898 0-1.102 0.028-2.197 0.082-3.285 0.456-41.813 26.979-47.507 57.401-35.297 9.724 4.811 17.719 9.384 25.429 14.359 13.254 7.035 20.795 7.24 26.438 0.673 2.714-3.698 4.343-8.34 4.343-13.362 0-7.006-3.171-13.272-8.155-17.441z" />
<glyph unicode="&#xe90d;" glyph-name="likes" d="M859.511 25.463h-431.548c-4.145 0.003-8.123 0.715-11.82 2.022-83.241 28.732-83.241 61.807-83.241 72.491v396.629c0.004 9.817 3.996 18.702 10.444 25.121 47.788 47.583 140.426 151.792 148.447 179.338 4.13 14.029 7.475 29.833 11.025 46.558 12.937 60.826 30.72 144.111 107.93 144.111 38.992-1.907 72.333-24.363 89.592-56.699 21.73-40.066 34.339-87.045 34.339-136.969 0-32.155-5.231-63.087-14.888-91.994l188.941 2.048c51.225-0.338 95.068-31.589 113.836-76.017 6.63-15.148 10.31-31.86 10.31-49.431 0-21.582-5.553-41.867-15.309-59.505 10.66-14.808 16.821-33.806 16.821-54.242 0-8.389-1.038-16.535-2.993-24.318-4.317-22.605-16.162-42.593-32.816-57.242 2.835-9.958 4.532-21.287 4.532-33.013 0-13.465-2.238-26.408-6.362-38.476-6.684-22.38-19.57-42.054-36.649-57.071 0.373-4.068 0.665-8.637 0.665-13.275 0-15.166-3.119-29.604-8.752-42.707-13.615-40.374-48.832-70.684-91.861-77.278zM434.21 96.427h424.619c14.596 8.871 25.326 22.87 29.762 39.441 2.153 7.834 2.085 14.421 0.105 16.401-6.845 6.479-11.105 15.63-11.105 25.775 0 5.664 1.328 11.017 3.689 15.767 5.906 11.714 18.042 19.748 32.056 19.748 0.698 0 1.392-0.020 2.080-0.059 9.681 9.761 16.023 22.955 16.963 37.619 0.321 1.698 0.499 3.453 0.499 5.25 0 7.805-3.367 14.823-8.728 19.682-9.446 6.498-15.546 17.219-15.546 29.366 0 19.605 15.893 35.499 35.499 35.499 1.877 0 3.72-0.146 5.518-0.426l-0.2 0.026c4.233 0 10.65 7.612 13.141 19.524 2.185 10.24 0.717 22.938-6.178 25.941-12.569 5.649-21.163 18.058-21.163 32.475 0 9.587 3.8 18.286 9.977 24.674 10.359 9.946 16.801 23.923 16.801 39.405 0 29.58-23.516 53.667-52.873 54.586l-240.724 0.002c-19.585 0.003-35.46 15.88-35.46 35.465 0 5.732 1.36 11.147 3.775 15.939 16.867 31.065 26.837 68.257 26.837 107.778 0 36.638-8.568 71.275-23.81 102.016-8.751 13.746-19.537 22.553-28.958 22.553-18.364 0-27.921-38.093-38.537-87.927-3.652-17.271-7.441-35.157-12.322-51.746-14.882-50.722-121.856-163.84-156.058-198.997v-371.268c8.594-5.202 18.58-10.083 29.009-14.070zM331.366-7.441h-258.901c-39.994 0.039-72.407 32.44-72.465 72.425v497.328c0.058 39.991 32.471 72.392 72.461 72.431h258.871c39.994-0.039 72.407-32.44 72.465-72.425v-497.294c-0.039-39.994-32.44-72.407-72.425-72.465zM72.465 563.78l-1.502-498.79 260.403-1.468c0.010 0 0.022 0 0.034 0 0.811 0 1.468 0.657 1.468 1.468 0 0 0 0 0 0v497.323z" />
<glyph unicode="&#xe90e;" glyph-name="location" d="M520.128 960c-216.376-0.4-391.654-175.79-391.872-392.171 0-204.821 325.824-548.181 363.008-586.645l29.12-30.208 29.12 30.208c37.184 38.4 363.008 381.952 363.008 586.624-0.255 216.567-175.803 392.046-392.37 392.192zM520.128 68.48c-107.968 117.76-311.104 366.656-311.104 499.2-0.020 1.327-0.032 2.893-0.032 4.462 0 171.853 139.315 311.168 311.168 311.168s311.168-139.315 311.168-311.168c0-1.569-0.012-3.135-0.035-4.699 0.003-132.18-203.133-381.14-311.165-498.964zM520.192 716.928c-82.357 0-149.12-66.763-149.12-149.12s66.763-149.12 149.12-149.12c82.357 0 149.12 66.763 149.12 149.12-0.073 82.327-66.793 149.047-149.113 149.12zM520.192 499.712c-37.608 0-68.096 30.488-68.096 68.096s30.488 68.096 68.096 68.096c37.608 0 68.096-30.488 68.096-68.096-0.036-37.594-30.502-68.060-68.093-68.096z" />
<glyph unicode="&#xe90f;" glyph-name="navigation" d="M8.223 512.659c-5.036-5.485-8.122-12.831-8.122-20.897 0-14.92 10.559-27.373 24.612-30.295l417.329-83.485 83.389-417.129c2.947-14.265 15.407-24.837 30.335-24.837 12.424 0 23.137 7.321 28.061 17.885l437.431 962.608c1.73 3.74 2.739 8.117 2.739 12.729 0 17.090-13.854 30.944-30.944 30.944-4.612 0-8.989-1.009-12.921-2.819l-962.225-437.272c-3.883-1.795-7.18-4.215-9.91-7.167zM131.084 503.278l799.781 363.526-363.587-800.025-68.648 343.546c-2.48 12.329-12.036 21.885-24.167 24.332z" />
<glyph unicode="&#xe910;" glyph-name="offers" horiz-adv-x="984" d="M792.005 728.005l12.585-315.097-413.316-413.316-327.616 327.616 413.316 413.049 181.254-7.192c-4.563-15.131-8.196-33.073-10.201-51.504-13.862-4.749-25.724-11.445-35.24-20.57-14.373-14.374-23.279-34.267-23.279-56.241 0-43.947 35.626-79.573 79.573-79.573s79.573 35.626 79.573 79.573c0 21.973-8.906 41.867-23.306 56.266-6.617 6.432-14.405 11.703-23.007 15.454 1.656 20.313 5.808 38.68 11.82 56.182zM648.041 621.064c0-3.196 0-6.659 0.599-9.722 1.788-13.013 12.762-22.952 26.087-23.106 0.504-0.038 1.073-0.059 1.647-0.059s1.143 0.021 1.707 0.063c6.553 0.868 12.29 4.134 16.342 8.882-1.246-4.397-3.555-8.192-6.626-11.214-4.811-4.75-11.42-7.682-18.715-7.682-14.71 0-26.635 11.925-26.635 26.635 0 6.065 2.027 11.657 5.441 16.134zM957.145 960c-121.953-0.151-227.434-70.524-278.194-172.851l-211.433 6.379c-7.699-0.034-14.708-2.961-20.003-7.747l-440.125-440.128c-4.708-4.8-7.614-11.383-7.614-18.645s2.906-13.844 7.618-18.649l365.501-364.702c4.8-4.708 11.383-7.614 18.645-7.614s13.844 2.906 18.649 7.618l440.147 440.147c4.79 4.815 7.751 11.454 7.751 18.784 0 0.42-0.010 0.837-0.029 1.252l-14.048 350.863c-0.69 13.689-11.615 24.614-25.24 25.301l-81.035 3.265c45.781 74.849 126.986 124.096 219.71 124.321 13.038 1.905 22.911 12.984 22.911 26.369s-9.873 24.464-22.733 26.352z" />
<glyph unicode="&#xe911;" glyph-name="pointers" d="M512 960c-282.77 0-512-229.23-512-512s229.23-512 512-512c282.77 0 512 229.23 512 512-0.34 282.633-229.366 511.66-511.967 512zM553.301 20.651v138.325h-82.603v-138.325c-204.371 20.632-365.415 181.676-385.9 384.235l138.177 1.813v82.603h-138.325c20.632 204.371 181.676 365.415 384.235 385.9l1.813-138.177h82.603v138.325c204.433-20.6 365.533-181.7 385.985-384.323l-138.263-1.81v-82.603h138.325c-20.672-204.335-181.703-365.337-384.236-385.814z" />
<glyph unicode="&#xe912;" glyph-name="search" d="M703.942 338.296h-43.888l-16.439 16.439c54.467 60.516 87.782 141.015 87.782 229.289 0 0.386 0 0.768-0.001 1.154 0 196.857-159.631 356.488-356.547 356.488s-356.547-159.631-356.547-356.547c0-196.917 159.631-356.547 356.547-356.547 0.015 0 0.029 0 0.040 0 0.328-0.001 0.716-0.001 1.107-0.001 88.274 0 168.763 33.317 229.586 88.057l16.169-16.713v-43.888l274.272-274.272 82.275 82.275zM374.843 338.296c-136.318 0-246.822 110.506-246.822 246.822s110.506 246.822 246.822 246.822c136.318 0 246.822-110.506 246.822-246.822 0.001-0.245 0.001-0.532 0.001-0.82 0-135.861-110.138-246.004-246.004-246.004-0.289 0-0.576 0-0.868 0.001z" />
<glyph unicode="&#xe913;" glyph-name="share2" d="M823.296 960c-92.738-0.359-167.821-75.441-168.18-168.145 0.22-15.555 2.538-30.446 6.683-44.556l-269.656-154.427c-38.752 44.626-95.578 72.68-158.956 72.68-116.070 0-210.164-94.094-210.164-210.164s94.094-210.164 210.164-210.164c63.378 0 120.204 28.054 158.736 72.421l269.58-155.146c-3.945-12.986-6.333-27.938-6.581-43.41-0.005-0.542-0.007-1.024-0.007-1.507 0-93.664 75.93-169.594 169.594-169.594s169.594 75.93 169.594 169.594c0 93.664-75.93 169.594-169.594 169.594-47.775 0-90.935-19.754-121.76-51.54l-269.256 155.361c7.077 19.165 11.172 41.299 11.172 64.39s-4.094 45.225-11.597 65.717l269.493 154.077c30.578-31.561 73.352-51.151 120.701-51.151 92.775 0 167.985 75.209 167.985 167.985 0 92.764-75.19 167.966-167.95 167.985zM823.296 875.886c0.014 0 0.032 0 0.049 0 46.455 0 84.114-37.659 84.114-84.114s-37.659-84.114-84.114-84.114c-46.455 0-84.114 37.659-84.114 84.114 0 0.017 0 0.034 0 0.051-0.001 0.172-0.002 0.378-0.002 0.585 0 46.105 37.375 83.48 83.48 83.48 0.206 0 0.413-0.001 0.619-0.002zM234.642 581.559c69.669 0 126.147-56.478 126.147-126.147s-56.478-126.147-126.147-126.147c-69.669 0-126.147 56.478-126.147 126.147-0.001 0.189-0.002 0.412-0.002 0.636 0 69.319 56.194 125.513 125.513 125.513 0.223 0 0.447-0.001 0.67-0.002zM823.345 203.118c46.455 0 84.114-37.659 84.114-84.114s-37.659-84.114-84.114-84.114c-46.455 0-84.114 37.659-84.114 84.114-0.002 0.189-0.002 0.412-0.002 0.636 0 46.105 37.375 83.48 83.48 83.48 0.207 0 0.413-0.001 0.619-0.002z" />
<glyph unicode="&#xe914;" glyph-name="flip" horiz-adv-x="1526" d="M1215.31 42.92h-102.932v109.286h83.057c124.564 0 225.693 133.036 225.693 296.988s-101.129 296.988-225.693 296.988h-390.005v-109.286l-247.37 161.563 247.37 161.563v-109.286h411.637c169.72 0 308.75-180.581 308.75-406.274s-138.985-401.542-310.508-401.542zM104.917 446.805c0-163.952 101.129-296.988 225.693-296.988h390.005v109.286l247.37-161.563-247.37-161.563v109.151h-411.682c-169.72 0-308.75 180.581-308.75 406.274s137.227 406.274 308.75 406.274h102.932v-109.286h-83.057c-122.806-2.253-223.89-135.425-223.89-301.585z" />
<glyph unicode="&#xe915;" glyph-name="delete" horiz-adv-x="633" d="M316.509 319.724c5.923 0 10.729 4.796 10.729 10.729v385.091c0 5.933-4.807 10.729-10.729 10.729s-10.729-4.796-10.729-10.729v-385.091c0-5.933 4.807-10.729 10.729-10.729zM379.604 319.724c5.923 0 10.729 4.796 10.729 10.729v385.091c0 5.933-4.807 10.729-10.729 10.729s-10.729-4.796-10.729-10.729v-385.091c0-5.933 4.807-10.729 10.729-10.729zM249.277 319.724c5.923 0 10.729 4.796 10.729 10.729v385.091c0 5.933-4.807 10.729-10.729 10.729s-10.729-4.796-10.729-10.729v-385.091c0-5.933 4.807-10.729 10.729-10.729zM188.531 319.724c5.923 0 10.729 4.796 10.729 10.729v385.091c0 5.933-4.807 10.729-10.729 10.729s-10.729-4.796-10.729-10.729v-385.091c0-5.933 4.807-10.729 10.729-10.729zM444.487 319.724c5.924 0 10.729 4.796 10.729 10.729v385.091c0 5.933-4.806 10.729-10.729 10.729s-10.729-4.796-10.729-10.729v-385.091c-0.001-5.933 4.807-10.729 10.729-10.729zM563.279 802.535h-150.68c-1.18 13.411-5.311 25.685-19.452 40.202-8.948 9.173-20.299 13.829-33.732 13.829h-107.28c-13.433 0-24.784-4.657-33.732-13.83-14.141-14.517-18.272-26.789-19.452-40.202h-129.211c-5.923 0-10.729-4.796-10.729-10.729s4.807-10.729 10.729-10.729h21.898l20.546-493.766c0.397-18.475 11.898-43.076 52.658-43.076h303.334c40.76 0 52.261 34.944 52.648 53.195l20.557 483.647h21.898c5.923 0 10.729 4.796 10.729 10.729s-4.807 10.73-10.729 10.73zM233.809 827.801c4.807 4.913 10.804 7.307 18.325 7.307h107.281c7.521 0 13.518-2.392 18.325-7.307 8.637-8.83 12.102-14.023 13.304-25.267h-170.529c1.201 11.244 4.667 16.437 13.293 25.267zM499.376 287.762c-0.064-3.315-1.544-22.069-31.2-22.069h-303.334c-29.334 0-31.093 18.807-31.211 22.294l-20.524 493.089h406.795l-20.526-493.315z" />
<glyph unicode="&#xe916;" glyph-name="user" d="M775.776 374.914c148.739-89.58 248.224-252.629 248.224-438.914h-64c0 169.553-94.191 317.107-233.102 393.19 17.708 13.669 34.077 28.986 48.878 45.723v0zM248.224 374.914c-148.739-89.58-248.224-252.629-248.224-438.914h64c0 169.553 94.191 317.107 233.102 393.19-17.708 13.669-34.077 28.986-48.878 45.723v0zM512 256c-194.404 0-352 157.596-352 352s157.596 352 352 352c194.404 0 352-157.596 352-352s-157.596-352-352-352zM512 320c159.058 0 288 128.942 288 288s-128.942 288-288 288c-159.058 0-288-128.942-288-288s128.942-288 288-288z" />
</font>
</defs>
</svg>
